{
	"asset":{
		"generator":"Khronos glTF Blender I/O v3.5.30",
		"version":"2.0"
	},
	"extensionsUsed":[
		"KHR_materials_specular",
		"KHR_materials_ior"
	],
	"scene":0,
	"scenes":[
		{
			"name":"Scene",
			"nodes":[
				0
			]
		}
	],
	"nodes":[
		{
			"mesh":0,
			"name":"Identity_Mask_Plane",
			"rotation":[
				0.7071068286895752,
				0,
				0,
				0.7071068286895752
			]
		}
	],
	"materials":[
		{
			"doubleSided":true,
			"emissiveFactor":[
				1,
				1,
				1
			],
			"emissiveTexture":{
				"index":0
			},
			"extensions":{
				"KHR_materials_specular":{
					"specularColorFactor":[
						1.897086119821904,
						1.897086119821904,
						1.897086119821904
					]
				},
				"KHR_materials_ior":{
					"ior":1.4500000476837158
				}
			},
			"name":"None.001",
			"normalTexture":{
				"index":1
			},
			"pbrMetallicRoughness":{
				"baseColorTexture":{
					"index":2
				},
				"metallicRoughnessTexture":{
					"index":3
				}
			}
		}
	],
	"meshes":[
		{
			"name":"Identity_Mask_Plane",
			"primitives":[
				{
					"attributes":{
						"POSITION":0,
						"TEXCOORD_0":1,
						"NORMAL":2
					},
					"indices":3,
					"material":0
				}
			]
		}
	],
	"textures":[
		{
			"sampler":0,
			"source":0
		},
		{
			"sampler":0,
			"source":1
		},
		{
			"sampler":0,
			"source":2
		},
		{
			"sampler":0,
			"source":3
		}
	],
	"images":[
		{
			"mimeType":"image/png",
			"name":"None.001_Emission",
			"uri":"None_001_Emission.png"
		},
		{
			"mimeType":"image/png",
			"name":"None.001_Normal",
			"uri":"None_001_Normal.png"
		},
		{
			"mimeType":"image/png",
			"name":"None.001_BaseColor",
			"uri":"None_001_BaseColor.png"
		},
		{
			"mimeType":"image/png",
			"name":"None.001_Metallic-None.001_Roughness",
			"uri":"None_001_Metallic-None_001_Roughness.png"
		}
	],
	"accessors":[
		{
			"bufferView":0,
			"componentType":5126,
			"count":259359,
			"max":[
				0.5818282961845398,
				0.3796706795692444,
				-0.10371329635381699
			],
			"min":[
				-0.581828236579895,
				-0.2526683807373047,
				-0.7626872062683105
			],
			"type":"VEC3"
		},
		{
			"bufferView":1,
			"componentType":5126,
			"count":259359,
			"type":"VEC2"
		},
		{
			"bufferView":2,
			"componentType":5126,
			"count":259359,
			"type":"VEC3"
		},
		{
			"bufferView":3,
			"componentType":5125,
			"count":1548288,
			"type":"SCALAR"
		}
	],
	"bufferViews":[
		{
			"buffer":0,
			"byteLength":3112308,
			"byteOffset":0,
			"target":34962
		},
		{
			"buffer":0,
			"byteLength":2074872,
			"byteOffset":3112308,
			"target":34962
		},
		{
			"buffer":0,
			"byteLength":3112308,
			"byteOffset":5187180,
			"target":34962
		},
		{
			"buffer":0,
			"byteLength":6193152,
			"byteOffset":8299488,
			"target":34963
		}
	],
	"samplers":[
		{
			"magFilter":9729,
			"minFilter":9987
		}
	],
	"buffers":[
		{
			"byteLength":14492640,
			"uri":"maskwithtextures.bin"
		}
	]
}
