{
	"asset":{
		"generator":"Khronos glTF Blender I/O v3.5.30",
		"version":"2.0"
	},
	"extensionsUsed":[
		"KHR_materials_specular",
		"KHR_materials_ior"
	],
	"scene":0,
	"scenes":[
		{
			"name":"Scene",
			"nodes":[
				0,
				1
			]
		}
	],
	"nodes":[
		{
			"mesh":0,
			"name":"Identity_Mask_Plane",
			"rotation":[
				0.7071068286895752,
				0,
				0,
				0.7071068286895752
			]
		},
		{
			"mesh":1,
			"name":"Identity_Mask",
			"translation":[
				0,
				0.18961122632026672,
				-0.3126031458377838
			]
		}
	],
	"materials":[
		{
			"doubleSided":true,
			"emissiveFactor":[
				1,
				1,
				1
			],
			"emissiveTexture":{
				"index":0
			},
			"extensions":{
				"KHR_materials_specular":{
					"specularColorFactor":[
						1.897086119821904,
						1.897086119821904,
						1.897086119821904
					]
				},
				"KHR_materials_ior":{
					"ior":1.4500000476837158
				}
			},
			"name":"None.001",
			"normalTexture":{
				"index":1
			},
			"pbrMetallicRoughness":{
				"baseColorTexture":{
					"index":2
				},
				"metallicRoughnessTexture":{
					"index":3
				}
			}
		}
	],
	"meshes":[
		{
			"name":"Identity_Mask_Plane",
			"primitives":[
				{
					"attributes":{
						"POSITION":0,
						"TEXCOORD_0":1,
						"NORMAL":2
					},
					"indices":3,
					"material":0
				}
			]
		},
		{
			"name":"Plane",
			"primitives":[
				{
					"attributes":{
						"POSITION":4,
						"TEXCOORD_0":5,
						"NORMAL":6
					},
					"indices":3
				}
			]
		}
	],
	"textures":[
		{
			"sampler":0,
			"source":0
		},
		{
			"sampler":0,
			"source":1
		},
		{
			"sampler":0,
			"source":2
		},
		{
			"sampler":0,
			"source":3
		}
	],
	"images":[
		{
			"mimeType":"image/png",
			"name":"None.001_Emission",
			"uri":"None_001_Emission.png"
		},
		{
			"mimeType":"image/png",
			"name":"None.001_Normal",
			"uri":"None_001_Normal.png"
		},
		{
			"mimeType":"image/png",
			"name":"None.001_BaseColor",
			"uri":"None_001_BaseColor.png"
		},
		{
			"mimeType":"image/png",
			"name":"None.001_Metallic-None.001_Roughness",
			"uri":"None_001_Metallic-None_001_Roughness.png"
		}
	],
	"accessors":[
		{
			"bufferView":0,
			"componentType":5126,
			"count":296,
			"max":[
				0.5833100080490112,
				0.38840198516845703,
				-0.10203699767589569
			],
			"min":[
				-0.5833100080490112,
				-0.25431498885154724,
				-0.7673839926719666
			],
			"type":"VEC3"
		},
		{
			"bufferView":1,
			"componentType":5126,
			"count":296,
			"type":"VEC2"
		},
		{
			"bufferView":2,
			"componentType":5126,
			"count":296,
			"type":"VEC3"
		},
		{
			"bufferView":3,
			"componentType":5123,
			"count":1536,
			"type":"SCALAR"
		},
		{
			"bufferView":4,
			"componentType":5126,
			"count":296,
			"max":[
				0.5833094716072083,
				0.5777730941772461,
				0.7010055780410767
			],
			"min":[
				-0.5833095908164978,
				-0.08757457137107849,
				0.058288633823394775
			],
			"type":"VEC3"
		},
		{
			"bufferView":5,
			"componentType":5126,
			"count":296,
			"type":"VEC2"
		},
		{
			"bufferView":6,
			"componentType":5126,
			"count":296,
			"type":"VEC3"
		}
	],
	"bufferViews":[
		{
			"buffer":0,
			"byteLength":3552,
			"byteOffset":0,
			"target":34962
		},
		{
			"buffer":0,
			"byteLength":2368,
			"byteOffset":3552,
			"target":34962
		},
		{
			"buffer":0,
			"byteLength":3552,
			"byteOffset":5920,
			"target":34962
		},
		{
			"buffer":0,
			"byteLength":3072,
			"byteOffset":9472,
			"target":34963
		},
		{
			"buffer":0,
			"byteLength":3552,
			"byteOffset":12544,
			"target":34962
		},
		{
			"buffer":0,
			"byteLength":2368,
			"byteOffset":16096,
			"target":34962
		},
		{
			"buffer":0,
			"byteLength":3552,
			"byteOffset":18464,
			"target":34962
		}
	],
	"samplers":[
		{
			"magFilter":9729,
			"minFilter":9987
		}
	],
	"buffers":[
		{
			"byteLength":22016,
			"uri":"maskwithtextures.bin"
		}
	]
}
