{
	"asset":{
		"generator":"Khronos glTF Blender I/O v3.5.30",
		"version":"2.0"
	},
	"scene":0,
	"scenes":[
		{
			"name":"Scene",
			"nodes":[
				0
			]
		}
	],
	"nodes":[
		{
			"mesh":0,
			"name":"Identity_Mask",
			"translation":[
				0,
				0.18961122632026672,
				-0.3126031458377838
			]
		}
	],
	"meshes":[
		{
			"name":"Plane",
			"primitives":[
				{
					"attributes":{
						"POSITION":0,
						"TEXCOORD_0":1,
						"NORMAL":2
					},
					"indices":3
				}
			]
		}
	],
	"accessors":[
		{
			"bufferView":0,
			"componentType":5126,
			"count":296,
			"max":[
				0.5833094716072083,
				0.5777730941772461,
				0.7010055780410767
			],
			"min":[
				-0.5833095908164978,
				-0.08757457137107849,
				0.058288633823394775
			],
			"type":"VEC3"
		},
		{
			"bufferView":1,
			"componentType":5126,
			"count":296,
			"type":"VEC2"
		},
		{
			"bufferView":2,
			"componentType":5126,
			"count":296,
			"type":"VEC3"
		},
		{
			"bufferView":3,
			"componentType":5123,
			"count":1536,
			"type":"SCALAR"
		}
	],
	"bufferViews":[
		{
			"buffer":0,
			"byteLength":3552,
			"byteOffset":0,
			"target":34962
		},
		{
			"buffer":0,
			"byteLength":2368,
			"byteOffset":3552,
			"target":34962
		},
		{
			"buffer":0,
			"byteLength":3552,
			"byteOffset":5920,
			"target":34962
		},
		{
			"buffer":0,
			"byteLength":3072,
			"byteOffset":9472,
			"target":34963
		}
	],
	"buffers":[
		{
			"byteLength":12544,
			"uri":"data:application/octet-stream;base64,"
		}
	]
}
